<svg width="23" height="22" viewBox="0 0 23 22" fill="none" xmlns="http://www.w3.org/2000/svg">
<path d="M21.7126 21.975H14.3863C14.0033 21.975 13.6681 21.6545 13.6681 21.2882V15.6566C13.6681 14.4662 12.7104 13.5504 11.4654 13.5504C10.2204 13.5504 9.26276 14.4662 9.26276 15.6566V21.2882C9.26276 21.6545 8.92757 21.975 8.5445 21.975H1.21826C0.835187 21.975 0.5 21.6545 0.5 21.2882V10.5286C0.5 10.3454 0.595768 10.1623 0.691536 10.0249L10.9866 0.181034C11.2739 -0.09368 11.7048 -0.09368 11.9921 0.181034L22.2872 10.0249C22.4787 10.2081 22.5745 10.5286 22.4308 10.7575C22.4308 10.8033 22.383 10.8033 22.383 10.8491V21.2882C22.4308 21.6545 22.0956 21.975 21.7126 21.975ZM15.1046 20.6014H20.9943V10.7117L11.5133 1.64617L1.93652 10.8033V20.6014H7.82624V15.6566C7.82624 13.6878 9.40641 12.1769 11.4654 12.1769C13.5244 12.1769 15.1046 13.6878 15.1046 15.6566V20.6014V20.6014Z" fill="black"/>
</svg>
