<svg width="22" height="22" viewBox="0 0 22 22" fill="none" xmlns="http://www.w3.org/2000/svg">
<g clip-path="url(#clip0)">
<path d="M9.16667 18.3333C4.125 18.3333 0 14.2083 0 9.16667C0 4.125 4.125 0 9.16667 0C14.2083 0 18.3333 4.125 18.3333 9.16667C18.3333 14.2083 14.2083 18.3333 9.16667 18.3333ZM9.16667 1.375C4.85833 1.375 1.375 4.85833 1.375 9.16667C1.375 13.475 4.85833 16.9583 9.16667 16.9583C13.475 16.9583 16.9583 13.475 16.9583 9.16667C16.9583 4.85833 13.475 1.375 9.16667 1.375Z" fill="#757575"/>
<path d="M21.3583 22.0458C21.175 22.0458 20.9916 22 20.8541 21.8625L14.6666 15.675C14.3916 15.4 14.3916 14.9875 14.6666 14.7125C14.9416 14.4375 15.3541 14.4375 15.6291 14.7125L21.8166 20.9C22.0916 21.175 22.0916 21.5875 21.8166 21.8625C21.725 22 21.5416 22.0458 21.3583 22.0458Z" fill="#757575"/>
</g>
<defs>
<clipPath id="clip0">
<rect width="22" height="22" fill="white"/>
</clipPath>
</defs>
</svg>
